<?xml version="1.0" encoding="UTF-8" standalone="no"?>
<!DOCTYPE svg PUBLIC "-//W3C//DTD SVG 1.1//EN" "http://www.w3.org/Graphics/SVG/1.1/DTD/svg11.dtd">
<svg width="100%" height="100%" viewBox="0 0 1000 1000" version="1.1" xmlns="http://www.w3.org/2000/svg" xmlns:xlink="http://www.w3.org/1999/xlink" xml:space="preserve" xmlns:serif="http://www.serif.com/" style="fill-rule:evenodd;clip-rule:evenodd;stroke-linejoin:round;stroke-miterlimit:2;">
    <g id="Layer-1" serif:id="Layer 1">
        <path d="M227.143,1000C226.979,998.976 226.784,997.957 226.555,996.94C225.805,994.509 224.826,992.133 223.674,989.635C222.139,986.31 220.653,982.959 218.958,979.718C214.975,973.418 209.918,967.324 204.237,963.229C203.925,963.005 203.699,962.677 203.549,962.292C200.877,960.184 199.03,957.689 197.942,953.537C197.348,951.274 197.263,948.951 197.957,946.7C198.504,944.931 199.453,943.388 199.762,941.515C199.987,940.151 199.848,939.102 200.393,937.817C201.386,935.473 203.085,934.534 203.87,931.96C204.34,930.419 204.392,928.752 205.932,927.775C209.209,925.697 215.169,929.661 217.103,932.284C219.248,935.195 221.214,938.035 223.715,940.736C225.871,943.065 228.291,944.397 230.793,946.226C231.886,947.025 232.63,947.843 233.118,948.684C233.458,948.989 233.723,949.359 233.924,949.78C234.231,950.03 234.517,950.457 234.754,951.101C239.131,962.988 242.309,977.882 252.385,986.393C256.997,990.289 262.547,992.925 267.884,995.664L276.337,1000L260.096,1000C253.226,996.121 246.974,991.357 242.425,984.627C239.885,980.869 237.944,976.707 236.391,972.429C236.478,973.686 236.293,974.758 235.789,976.262C235.623,976.756 235.254,977.219 234.794,977.461C237.539,985.986 244.315,992.875 251.185,998.51C251.795,999.011 252.41,999.508 253.029,1000L245.658,1000C238.499,993.263 232.862,985.453 230.891,976.033C229.725,975.207 228.689,974.231 227.578,973.155C226.537,972.146 225.548,970.794 224.284,970.053C222.192,968.827 221.712,969.502 219.448,970.209C220.453,971.852 221.362,973.489 222.176,975.035C226.122,982.523 230.651,990.756 231.933,999.197C231.973,999.464 232.013,999.732 232.05,1000L227.143,1000ZM503.565,1000C515.281,993.009 527.536,985.611 540.39,981.782C541.871,981.34 543.375,981.037 544.88,980.876C546.198,980.606 547.54,980.435 548.907,980.389C554.632,980.197 559.895,982.874 562.907,987.119C566.675,990.906 567.402,994.28 565.094,998.759C565.01,998.974 564.91,999.157 564.798,999.31C564.777,999.348 564.756,999.385 564.735,999.423C564.672,999.615 564.61,999.808 564.546,1000L560.384,1000C560.753,998.281 561.002,996.549 561.09,994.805C560.794,994.693 560.491,994.549 560.173,994.377C558.469,993.456 557.198,992.554 555.333,991.922C553.418,991.273 551.592,990.496 550.263,989.189C545.615,992.782 540.98,996.391 536.341,1000L529.715,1000C535.289,995.898 540.873,991.81 546.442,987.704C544.057,987.816 541.662,988.375 539.301,989.182C536.431,990.427 533.677,992.001 531.087,993.438C527.163,995.615 523.247,997.804 519.333,1000L503.565,1000ZM1000,982.711C998.6,982.485 997.201,982.265 995.8,982.051C969.013,977.954 941.325,976.106 914.748,982.585C900.516,986.055 887.064,991.815 873.623,997.528C871.737,998.33 869.851,999.145 867.982,1000L854.176,1000C861.057,995.601 868.44,992.227 876.276,988.927C883.257,985.988 890.249,983.105 897.373,980.607C905.155,977.621 913.041,974.899 921.194,973.178C933.227,970.639 945.464,970.971 957.673,971.646C959.391,971.741 961.108,971.846 962.826,971.96C969.409,972.291 975.985,972.893 982.522,973.688C987.317,974.211 992.102,974.808 996.875,975.477C997.918,975.624 998.96,975.774 1000,975.927L1000,982.711ZM1000,966.636C996.254,965.91 992.514,965.227 988.792,964.58C964.966,960.431 940.255,958.845 916.371,963.452C904.192,965.802 892.351,969.848 881.383,975.655C869.686,981.846 858.972,989.704 848.177,997.31C846.896,998.212 845.599,999.108 844.295,1000L835.25,1000C840.81,996.119 846.494,992.395 851.976,988.547C862.479,981.173 873.116,973.818 884.765,968.342C896.514,962.819 909.137,959.353 921.956,957.43C946.921,953.684 972.198,956.203 996.807,961.167C997.872,961.382 998.937,961.598 1000,961.817L1000,966.636ZM1000,911.416C999.205,911.13 998.404,910.853 997.598,910.585C994.814,909.763 991.973,909.056 989.07,908.466C973.342,905.272 957.309,902.683 941.212,902.959C932.794,903.104 924.444,904.062 916.182,905.555C915.011,905.859 913.836,906.167 912.656,906.471C903.941,908.717 895.187,910.812 886.503,913.178C868.638,918.045 851.738,924.374 836,934.231C832.636,936.338 829.251,937.487 825.668,939.081C822.102,940.667 820.059,943.567 817.068,945.904C814.001,948.302 810.327,949.723 806.967,951.639C806.724,951.777 806.483,951.918 806.242,952.06C804.394,953.404 802.553,954.743 800.72,956.067C798.664,957.55 796.612,959.057 794.577,960.594C782.394,970.663 770.277,981.861 761.597,995.097C760.659,996.526 759.746,998.018 758.866,999.56L758.634,1000L752.636,1000C754.012,997.03 755.557,994.143 757.324,991.383C758.256,989.929 759.227,988.499 760.235,987.093C761.385,985.369 762.592,983.679 763.851,982.028C770.175,973.731 777.791,966.49 785.918,959.845C789.656,956.51 793.507,953.309 797.496,950.376C799.686,948.766 801.939,947.372 804.244,946.054C804.653,945.763 805.061,945.473 805.468,945.184C810.155,941.857 814.848,938.47 819.608,935.177C819.843,935.007 820.082,934.841 820.327,934.68C831.077,927.276 842.191,920.383 854.391,915.754C872.261,908.976 891.458,903.708 910.199,899.988C912.507,899.53 914.814,899.12 917.12,898.76C923.964,897.075 930.777,895.743 937.999,896.023C956.333,896.734 975.242,898.321 992.98,903.203C993.585,903.37 994.187,903.542 994.784,903.719C996.536,904.19 998.276,904.696 1000,905.243L1000,911.416ZM0,905.243C5.51,906.989 10.871,909.147 15.98,911.889C30.923,919.909 43.568,931.419 54.82,943.988C61.062,950.959 67.076,958.218 72.608,965.769C75.134,969.216 77.414,973.794 76.041,977.754C76.017,978.131 75.955,978.489 75.86,978.829C75.131,983.449 72.048,988.139 67.955,990.554C63.219,996.105 45.827,991.515 40.621,990.427C27.131,987.61 13.606,984.904 0,982.711L0,975.927C11.66,977.641 23.256,979.777 34.767,982.299C40.907,983.645 47.021,985.467 53.205,986.575C54.74,986.766 56.374,986.928 57.933,987.006C58.922,986.995 59.915,986.915 60.876,986.743C61.223,986.144 61.635,985.63 62.086,985.162C62.218,984.921 62.352,984.681 62.49,984.444C42.632,976.211 21.188,970.739 0,966.636L0,961.817C21.958,966.323 44.18,971.777 64.443,981.468C66.605,978.539 69.232,975.996 72.189,973.727C72.056,972.789 71.654,971.761 71.085,970.703C69.913,969.346 68.355,968.083 67.487,967.15C65.836,965.377 64.188,963.6 62.538,961.825C59.213,958.249 55.88,954.683 52.572,951.091C46.013,943.968 39.467,936.784 32.186,930.383C22.494,921.862 11.75,915.64 0,911.416L0,905.243ZM259.188,530.49C262.66,529.63 266.217,530.623 269.362,532.527C281.893,538.585 282.01,554.51 282.173,566.653C282.311,576.937 283.435,587.123 285.157,597.222C285.283,597.95 285.41,598.677 285.538,599.404C286.389,604.155 287.365,608.885 288.428,613.598C292.958,633.691 297.37,654.695 305.865,673.676C307.428,676.948 309.123,680.191 310.968,683.399C314.232,689.074 317.823,694.562 321.719,699.824C329.226,709.322 337.905,717.892 347.107,725.737C351.501,729.483 356.018,733.262 360.673,736.879C361.646,737.422 362.62,737.965 363.591,738.516C369.289,741.749 374.321,745.896 379.94,749.209C385.114,752.26 390.965,754.065 396.474,756.395C399.071,757.494 401.622,758.659 404.138,759.873C407.709,761.215 411.24,762.658 414.646,764.39C425.528,769.926 435.701,778.067 448.275,779.199C461.177,780.36 472.213,771.134 485.111,771.644C486.992,771.719 488.959,771.991 490.848,772.526C492.561,772.644 494.293,772.948 495.949,773.265C503.449,774.703 511.731,775.782 517.742,781.067C519.227,782.375 519.74,783.575 518.993,785.546C518.464,786.941 517.626,787.228 516.785,788.253C516.339,788.797 516.102,788.972 515.988,789.01C516.037,789.122 516.082,789.401 516.054,790.025C515.953,792.233 516.07,793.405 514.34,795.065C513.051,796.305 511.396,796.715 510.344,798.332C509.649,799.4 509.454,800.586 508.629,801.634C506.677,804.11 504.25,804.883 501.279,805.405C498.247,805.938 496.097,807.173 492.938,806.715C491.172,806.459 487.871,806.111 484.679,805.322C480.804,804.782 476.853,804.221 472.936,803.929C470.469,803.905 467.997,803.98 465.426,804.3C460.198,804.954 455.029,806.04 449.929,807.35C449.153,807.549 448.401,807.766 447.672,808.001C443.353,809.849 439.28,812.232 435.451,815.057C435.293,815.195 435.134,815.335 434.975,815.477C421.137,827.833 404.855,833.795 386.2,832.874C355.525,831.362 326.531,814.475 303.147,795.701C294.938,789.11 287.123,782.036 279.652,774.619C271.821,767.51 264.353,760.006 257.985,751.67C256.941,750.303 255.939,748.909 254.971,747.493L254.707,747.157C248.646,739.424 244.018,730.733 239.548,722.02C238.555,720.082 237.544,718.151 236.531,716.222C234.319,712.382 232.165,708.51 230.219,704.521C229.159,702.348 228.178,700.149 227.27,697.925C223.311,689.349 220.904,680.583 219.244,671.303C216.096,653.718 213.187,635.951 213.185,618.037C213.184,610.142 213.743,602.144 216.027,594.548C218.283,587.044 222.337,580.101 226.08,573.21C228.713,567.631 231.434,562.094 234.232,556.597C238.93,547.368 245.704,533.508 256.692,531.245C257.135,531.046 257.584,530.858 258.041,530.681C258.509,530.499 258.888,530.446 259.188,530.49ZM476.71,798.091C476.888,797.743 477.082,797.418 477.117,797.026C477.306,794.84 476.731,794.686 474.979,793.8C471.305,791.943 467.398,791.279 463.568,790.012C462.93,789.801 462.599,789.418 462.487,788.967C462.397,788.989 462.314,789.009 462.239,789.025C458.926,789.758 455.643,790.622 452.307,791.249C446.83,792.276 441.028,792.799 435.57,791.363C429.042,789.644 423.647,785.219 417.148,783.212C410.904,781.284 404.854,779.566 398.92,776.753C375.846,765.813 352.919,754.494 333.417,737.748C328.568,733.584 324.194,729.014 319.831,724.357C315.703,719.951 311.117,716.243 306.573,712.297C301.87,708.214 300.119,704.402 297.953,698.781C295.604,692.688 290.953,687.699 288.029,681.866C282.346,670.526 278.887,657.717 275.478,645.541C271.9,632.768 269.414,619.59 267.671,606.442C266.159,595.026 267.74,583.554 267.209,572.086C266.718,561.486 265.286,550.604 266.557,540.006C265.833,539.895 265.093,539.82 264.397,539.627C261.487,538.819 258.886,537.399 256.606,535.431L256.556,535.387C247.36,540.382 243.033,551.098 238.425,560.042C234.048,568.538 229.37,576.91 225.194,585.506C219.814,596.581 218.697,609.122 219.225,621.57C219.521,625.761 219.956,629.944 220.344,634.101C220.506,635.843 220.671,637.585 220.842,639.328C220.971,640.365 221.105,641.397 221.239,642.421C223.388,658.793 225.48,676.163 232.069,691.421C235.692,699.811 240.295,707.776 244.487,715.887C248.686,724.014 252.929,732.161 258.307,739.587C266.689,751.159 277.058,761.735 287.229,771.734C297.906,782.233 309.306,792.031 321.628,800.558C330.527,806.717 340.455,812.679 350.948,817.401C355.249,819.204 359.638,820.849 364.11,822.364C366.164,823.06 368.243,823.723 370.34,824.336C381.632,827.272 393.229,828.247 404.631,826.138C412.513,824.679 420.109,821.642 426.448,816.677C432.946,811.587 438.105,805.747 446.173,803.117C453.8,800.63 462.081,799.078 470.064,798.342C472.303,798.135 474.504,798.055 476.71,798.091ZM515.988,789.01C515.95,788.922 515.909,788.936 515.898,788.965C515.887,788.993 515.906,789.037 515.988,789.01L515.988,789.01ZM477.669,778.274C472.777,779.355 468.155,782.212 463.379,783.572C451.79,786.875 439.974,785.79 429.272,780.264C427.595,779.398 425.932,778.512 424.279,777.614C415.62,773.142 407.434,767.796 398.256,764.218C392.156,761.84 385.76,760.236 379.847,757.392C374.412,754.778 369.346,751.449 364.461,747.933C361.059,745.485 357.665,742.975 354.307,740.393C350.508,738.248 346.788,735.986 343.478,733.1C338.912,729.118 334.681,724.648 330.467,720.294C327.772,717.507 325.175,714.626 322.681,711.66C316.627,704.886 311.143,697.646 306.487,689.849C302.579,683.303 299.468,676.431 296.86,669.356C290.065,652.852 286.057,635.577 282.741,617.655C282.272,615.564 281.817,613.472 281.378,611.377C279.408,601.995 277.814,592.512 276.937,582.962C276.582,580.419 276.249,577.874 275.942,575.327C275.169,568.925 274.57,562.503 274.175,556.066C273.939,552.196 273.822,547.794 272.328,544.234C271.979,543.587 271.599,542.957 271.183,542.346C271.077,542.277 270.984,542.19 270.908,542.083C270.651,541.962 270.395,541.833 270.14,541.697C269.979,552.583 270.939,563.32 271.385,574.256C271.652,580.787 271.12,587.259 271.089,593.783C271.054,600.822 272.31,607.713 273.508,614.622C275.732,627.432 278.605,639.976 282.459,652.398C286.534,665.535 290.779,677.787 298.408,689.329C301.553,694.09 302.478,699.971 305.777,704.489C309.116,709.063 314.362,712.089 318.475,715.912C323.536,720.615 327.881,726.023 332.925,730.751C337.522,735.059 342.462,738.986 347.529,742.725C357.575,750.136 368.241,756.344 379.373,761.969C390.821,767.753 402.379,774.442 414.735,778.033C419.712,779.479 424.566,780.834 429.148,783.318C434.99,786.484 439.946,788.686 446.794,788.293C453.279,787.921 459.52,785.908 465.867,784.692C466.132,784.641 466.429,784.576 466.751,784.502C470.471,782.536 474.564,781.032 477.669,778.274ZM634.894,595.917C633.852,596.252 632.852,596.643 631.975,596.973C628.668,598.22 626.285,598.516 622.865,598.666C620.241,598.783 616.707,598.468 614.225,599.448C612.944,599.953 612.52,600.762 611.47,601.524C609.823,602.717 607.995,603.263 606.273,604.219C604.509,605.197 603.29,606.732 603.568,608.815C603.911,611.394 606.768,613.176 607.729,615.549C608.438,617.295 608.516,618.012 610.168,619.349C612.636,621.348 613.253,624.298 615.669,626.326C617.351,627.739 619.53,628.754 621.657,629.283C624.38,629.959 627.115,629.843 629.81,629.128C632.351,628.455 634.864,628.166 637.395,627.586C637.973,627.454 638.582,627.252 639.199,626.999C639.638,627.119 640.07,627.156 640.467,627.084C643.588,626.518 646.786,626.085 650.011,625.837C653.931,625.71 657.873,625.637 661.779,625.841C664.369,626.062 666.935,626.444 669.449,627.013C679.688,629.327 688.009,635.91 696.954,641.016C704.144,645.12 711.662,648.116 719.93,649.086C726.756,649.887 733.251,649.024 739.83,647.77C742.256,647.433 744.696,647.03 747.148,646.588C762.183,643.876 776.022,637.214 788.798,629.013C803.739,619.423 817.971,608.749 830.395,596.028C837.674,588.575 844.857,580.738 851.544,572.543C853.279,570.947 855.008,569.344 856.598,567.605C859.44,564.494 861.486,560.875 863.443,557.169C863.841,556.416 864.244,555.667 864.653,554.921C864.878,554.584 865.102,554.247 865.324,553.91C867.967,549.904 870.194,545.75 872.248,541.507C873.498,539.233 874.704,536.934 875.823,534.579C878.761,528.399 881.426,522.084 883.809,515.668C885.273,512.161 886.65,508.617 887.85,505.006C890.094,498.264 891.73,491.34 892.989,484.332C894.661,476.596 895.915,468.772 896.72,460.9C898.354,444.912 899.25,427.683 895.655,411.91C893.818,403.849 890.799,396.181 887.082,388.843C882.869,380.199 877.754,371.971 872.295,364.094C867.769,357.561 863.115,350.881 857.338,345.376C854.192,342.377 848.627,337.213 843.869,338.954C841.608,338.919 839.381,339.604 837.347,340.64C834.85,341.911 832.217,343.293 830.828,345.809C828.036,348.526 826.909,352.403 826.629,356.754C826.133,364.453 826.156,372.209 825.839,379.919C825.226,394.788 824.237,409.655 822.288,424.412C818.748,451.208 811.946,477.894 798.992,501.774C786.115,525.513 767.231,544.762 744.728,559.515C733.979,566.564 722.725,572.644 711.128,578.166C705.185,580.994 700.493,584.461 695.502,588.729C690.979,592.598 686.291,595.788 680.584,597.648C675.357,599.353 669.801,600.027 664.32,599.497C658.929,598.974 654.205,596.764 649.13,595.104C644.835,593.699 638.821,593.605 634.894,595.917ZM645.834,620.282C645.845,619.813 645.833,619.305 645.837,618.736C645.853,616.768 645.014,616.868 647.177,615.674C649.089,614.617 651.033,613.887 653.166,613.422C655.661,612.878 657.752,612.595 659.834,611.116C662.503,611.573 665.172,612.026 667.837,612.494C673.779,613.539 678.989,614.086 684.756,611.918C697.998,606.941 710.707,599.647 723.464,593.533C734.883,588.059 746.445,582.902 757.074,575.962C767.342,569.259 776.854,561.433 785.698,552.953C793.995,544.996 801.919,536.488 808.972,527.403C816.803,517.317 822.29,505.126 827.251,493.425C837.02,470.384 843.326,446.13 844.685,421.09C846.002,396.856 843.409,372.65 840.129,348.667C840.451,348.544 840.763,348.422 841.062,348.308C843.86,347.242 846.275,345.58 848.481,343.583C855.992,348.207 860.783,356.674 865.745,363.722C870.68,370.732 875.51,377.855 879.603,385.398C888.045,400.958 891.792,417.016 891.653,434.696C891.399,467.253 883.871,500.128 870.026,529.578C866.624,536.813 862.352,543.425 858.587,550.446C858.031,551.482 857.489,552.529 856.94,553.572C854.034,557.846 850.939,562.01 847.682,566.144C845.972,567.735 844.201,569.269 842.555,570.914C836.864,576.602 832.136,583.143 826.708,589.068C820.789,595.527 813.693,600.704 806.813,606.074C794.528,615.664 782.404,626.269 768.284,633.111C761.09,636.596 753.369,638.637 745.588,640.332C737.858,642.015 729.991,644.075 722.027,643.793C710.303,643.375 701.082,637.714 691.655,632.044C688.737,630.072 685.788,628.15 682.653,626.523C680.2,625.25 677.689,624.25 675.134,623.468C665.851,620.077 655.722,619.407 645.834,620.282ZM645.567,600.38C649.995,600.618 654.508,603.363 658.698,604.417C663.841,605.709 669.226,606.046 674.491,605.489C676.983,605.226 679.31,604.744 681.515,604.086C688.018,602.409 694.092,599.276 699.37,594.896C700.507,593.952 701.622,593.017 702.736,592.1C703.821,591.32 704.92,590.531 706.039,589.743C715.618,583.003 726.754,579.166 737.059,573.748C746.753,568.652 755.489,562.011 763.624,554.721C773.954,546.564 783.217,537.256 791.22,526.959C791.297,526.871 791.375,526.782 791.452,526.693C799.749,517.138 805.939,505.753 811.007,494.217C821.295,470.8 827.344,446.568 829.822,421.131C831.004,409.013 831.569,396.847 832.034,384.684C832.289,378.02 832.553,371.356 832.753,364.691C832.887,360.194 832.426,353.546 835.634,349.922C836.012,349.884 836.395,349.82 836.777,349.737C839.305,375.808 842.254,402.043 839.652,428.219C837.202,452.867 829.916,476.757 819.437,499.15C814.339,510.044 808.708,520.282 800.955,529.523C793.6,538.288 785.714,546.622 777.224,554.298C768.787,561.928 759.755,568.933 750.07,574.913C739.67,581.335 728.383,586.227 717.382,591.507C705.777,597.078 694.196,603.714 682.133,608.214C675.809,610.573 669.964,609.251 663.542,608.103C661.974,607.823 660.407,607.536 658.84,607.248C657.395,606.141 655.995,605.458 654.165,604.782C650.802,603.538 648.036,602.403 645.567,600.38ZM125.611,436.874C125.259,437.589 124.831,438.279 124.316,438.945C121.972,441.978 120.537,443.828 119.18,447.488C118.293,449.876 117.097,451.99 114.992,453.487C113.776,454.352 112.354,454.786 111.078,455.523C109.545,456.408 108.393,457.683 106.954,458.649C101.256,462.475 100.777,456.322 97.287,453.854C95.571,452.64 94.995,451.323 94.322,449.412C93.712,447.681 93.361,446.398 92.24,445.037C91.325,443.923 90.494,443.403 89.863,442.024C87.889,437.705 89.726,431.605 92.139,427.802C92.67,426.967 93.268,426.165 93.905,425.387C94.479,424.273 95.289,423.378 96.227,422.445C96.296,422.376 96.365,422.306 96.433,422.237C97.476,420.48 98.892,418.889 100.158,417.282C100.479,416.753 100.802,416.205 101.141,415.63C102.731,412.93 104.521,410.474 106.123,407.875C106.987,406.221 107.78,404.529 108.496,402.801C112.84,392.316 112.551,381.614 111.674,370.829L111.672,370.821C109.753,361.207 108.012,353.105 110.164,343.331C110.507,341.776 110.869,340.202 111.258,338.62C113.893,323.02 121.772,310.993 133.482,300.152C139.462,294.617 145.529,289.184 151.893,284.161C154.629,281.959 157.426,279.834 160.303,277.816C177.116,266.027 196.471,258.691 215.947,252.605C234.212,246.896 252.772,242.788 271.797,240.976C276.437,240.442 281.066,240.017 285.666,239.7C304.608,238.396 322.968,240.731 341.222,245.838C357.82,250.483 375.202,255.389 389.82,264.784C391.375,265.783 392.9,266.824 394.397,267.904C407.532,276.589 417.889,288.239 426.946,301.263C435.229,313.174 447.376,327.963 446.076,343.327C446.771,346.506 445.023,350.249 442.865,352.479C440.02,355.42 434.15,358.225 430.036,356.613C427.266,356.685 424.386,355.997 421.591,355.067C418.176,353.929 414.786,352.698 411.404,351.444C408.454,350.538 405.52,349.583 402.595,348.61C389.941,344.399 377.459,339.688 364.796,335.502C340.676,327.529 316.139,322.136 290.6,322.732C289.84,322.749 289.082,322.773 288.323,322.801C288.159,322.813 287.997,322.824 287.835,322.836C284.683,323.063 281.504,323.266 278.315,323.49C270.013,324.314 261.814,325.744 253.61,327.636C247.343,329.082 240.822,330.139 234.782,332.391C233.985,332.688 233.196,333.004 232.413,333.336C231.333,333.813 230.259,334.304 229.191,334.806C225.516,336.595 221.977,338.683 218.498,340.803C207.58,347.455 196.782,354.307 185.942,361.084C183.195,362.802 180.386,364.47 177.643,366.232C174.999,368.116 172.369,370.016 169.75,371.924C165.339,375.589 161.333,379.653 156.738,383.126C147.389,390.194 135.529,397.491 133.487,410.08C131.954,419.535 134.106,430.36 125.611,436.874ZM126.536,422.631C127.235,418.794 126.77,414.083 127.346,411.018C127.961,407.742 128.955,404.534 130.299,401.483C131.105,399.331 132.155,397.263 133.461,395.274C134.977,392.966 136.722,390.886 138.621,388.958C144.289,382.812 151.331,377.928 158.13,373.111C158.869,372.588 159.607,372.063 160.347,371.537C160.69,371.24 161.03,370.94 161.368,370.637C170.722,362.222 181.078,355.973 191.741,349.341C192.048,349.15 192.354,348.959 192.661,348.767C197.009,345.865 201.407,343.043 205.88,340.346C211.791,336.588 217.755,332.906 223.905,329.62C230.354,326.174 237.197,323.998 244.191,322.255C247.745,321.182 251.362,320.312 255.053,319.706C255.634,319.61 256.215,319.518 256.797,319.427C257.144,319.353 257.492,319.278 257.839,319.203C270.032,316.571 282.419,315.399 294.89,315.473C301.554,315.512 308.15,315.927 314.681,316.672C331.182,318.035 347.238,321.721 363.153,327.512C375.353,331.951 387.527,336.471 399.685,341.024L399.818,341.074C400.178,341.199 400.539,341.324 400.9,341.448C406.645,343.431 412.425,345.286 418.256,346.997C422.313,348.187 427.264,350.223 431.831,350.184C432.058,350.044 432.279,349.898 432.493,349.742C421.012,344.201 409.554,338.616 398.118,332.981C385.946,326.982 373.881,320.505 360.911,316.375C338.574,309.261 313.543,305.095 290.088,305.43C265.524,305.78 240.638,313.749 218.377,323.776C198.161,332.883 180.105,346.12 163.847,361.085C159.565,365.026 155.531,369.218 151.274,373.18C147.237,376.936 142.302,379.241 138.173,382.795C133.602,386.731 131.322,392.549 129.279,398.059C127.602,402.581 126.101,407.158 124.742,411.781C125.242,415.314 126.02,418.981 126.536,422.631ZM108.445,415.377C109.051,415.853 109.637,416.323 110.464,416.347C111.573,416.38 114.792,412.875 115.742,412.112C117.501,410.702 119.26,409.289 121.019,407.878C121.497,407.494 121.954,407.485 122.366,407.687C123.726,403.169 125.219,398.69 126.892,394.277C128.849,389.113 131.108,383.84 135.069,379.868C139.839,375.086 146.208,372.27 151.129,367.495C155.599,363.157 160.043,358.806 164.684,354.648C181.838,339.278 200.904,325.729 222.353,317.057C245.648,307.639 269.902,300.22 295.247,300.843C307.656,301.148 319.971,302.84 332.171,305.045C344.275,307.232 356.383,309.825 367.899,314.227C379.48,318.654 390.489,324.58 401.593,330.056C412.798,335.582 423.97,341.169 435.124,346.792C435.438,346.384 435.771,345.985 436.173,345.601C437.645,344.195 440.12,342.114 442.121,341.268C438.176,324.046 426.607,308.018 415.464,294.78C409.236,287.383 402.293,280.561 394.574,274.799C386.842,269.552 378.391,265.337 369.347,261.979C354.246,256.371 338.253,252.108 322.492,248.805C306.089,245.368 288.626,246.217 271.915,248.004C238.403,252.571 203.3,261.293 173.501,277.552C158.996,285.466 146.379,296.493 134.476,307.845C122.433,319.332 115.357,333.074 114.966,349.972C114.586,366.346 119.546,382.589 115.33,398.825C113.817,404.654 111.444,410.178 108.445,415.377ZM867.982,0C863.205,2.186 858.547,4.629 854.312,7.767C849.26,11.511 844.685,15.941 840.287,20.423C830.565,30.333 821.977,41.276 812.358,51.277C807.344,56.492 802.001,61.266 796.167,65.549C791.325,69.103 786.29,72.552 782.953,77.666C776.557,87.473 776.865,99.527 776.636,110.762C776.567,114.167 775.93,117.769 774.606,120.851C774.471,121.925 774.229,122.928 773.908,123.774C773.109,125.876 771.749,127.804 771.119,129.965C770.519,132.024 770.74,134.192 770.087,136.24C769.145,139.2 766.926,141.929 764.939,144.274C763.208,146.317 760.51,149.312 757.678,149.7C754.671,150.11 754.187,148.083 752.632,146.169C751.504,144.781 751.843,145.183 749.938,144.263C748.693,143.659 747.762,142.951 746.935,141.815C745.617,140.011 744.132,137.711 742.995,135.462C742.104,134.203 741.418,132.781 740.97,131.705C736.968,122.116 744.634,114.259 747.669,105.596C751.353,95.077 752.155,83.87 750.219,72.912C748.608,63.798 745.619,54.96 744.21,45.81C742.93,39.57 742.473,33.221 743.598,26.845C744.429,22.131 745.953,17.487 747.674,12.937C749.091,8.542 750.695,4.188 752.636,0L758.634,0C756.995,3.123 755.527,6.336 754.233,9.62C753.008,12.728 751.726,15.879 750.589,19.078C748.384,26.737 747.317,34.641 748.005,42.005C748.171,43.783 748.405,45.548 748.688,47.306C751.329,57.628 756.437,67.48 757.369,78.254C757.986,85.39 756.422,92.65 755,99.61C754.662,101.265 754.289,102.911 753.853,104.539C754.814,104.543 755.357,105.219 756.461,106.249C756.665,106.659 756.853,107.076 757.024,107.501C758.69,107.996 759.601,107.217 759.756,105.164C760.318,103.972 760.662,102.811 761.408,101.703C762.871,99.529 763.99,97.062 765.45,94.889C765.544,85.315 767.826,75.838 772.23,67.278C778.072,55.923 787.788,48.854 796.474,39.886C804.983,31.104 810.621,20.039 819.844,11.879C824.672,7.607 829.904,3.731 835.25,0L844.295,0C835.561,5.978 826.448,11.863 819.056,19.375C811.142,27.417 805.808,37.565 797.762,45.513C789.551,53.622 780.737,60.388 775.354,70.881C771.604,78.195 769.552,86.114 769.158,94.215C769.516,94.647 769.78,95.108 769.866,95.422C770.386,97.321 770.683,99.576 771.004,101.893C771.098,100.759 771.24,99.626 771.413,98.489C771.742,96.317 772.106,94.129 772.533,91.949C772.568,91.664 772.605,91.38 772.643,91.095C774.29,78.889 779.458,69.57 789.358,62.176C793.764,58.885 797.916,55.469 801.892,51.887C817.645,37.126 829.6,18.582 846.713,5.377C849.13,3.41 851.618,1.634 854.176,0L867.982,0ZM564.546,0C564.214,1.014 563.868,2.023 563.511,3.029C561.336,13.83 555.766,24.477 551.335,33.975C545.052,47.443 537.653,60.612 527.215,71.328C520.781,77.931 513.124,82.994 505.072,87.431C499.456,90.9 493.655,94.062 488.017,97.027C478.936,101.803 469.502,105.616 459.753,108.524C452.224,111.253 444.519,113.468 436.59,114.883C418.41,118.127 399.312,118.822 380.873,118.459C363.035,118.107 345.16,115.837 328.023,110.774C309.384,105.267 289.334,98.585 271.927,88.303C262.117,83.409 252.793,77.445 246.097,69.355C240.738,62.88 236.437,55.223 232.757,47.684C230.939,43.961 230.027,40.109 229.539,36.179C228.155,30.323 227.551,24.237 227.796,17.987C228.042,11.698 228.074,5.785 227.143,0L232.05,0C233.269,8.677 232.978,17.73 233.326,26.461C233.518,31.247 233.336,36.194 234.981,40.756C236.636,45.348 239.447,49.722 241.91,53.925C242.811,55.462 243.744,56.952 244.719,58.392C250.082,65.433 256.664,71.383 263.965,76.49C270.771,80.594 278.011,84.091 285.214,87.385C302.95,95.499 321.627,101.827 340.711,105.889C356.588,109.269 372.452,110.573 388.464,111.561C393.439,111.527 398.415,111.38 403.389,111.153C404.687,110.995 405.973,110.807 407.158,110.694C411.999,110.235 416.841,109.783 421.673,109.234C431.127,108.161 440.573,106.805 449.859,104.707C450.944,104.462 452.023,104.204 453.1,103.934C456.141,103.02 459.171,101.992 462.189,100.836C476.411,95.386 490.3,88.495 503.693,81.191C510.488,76.925 517.303,72.455 523.05,66.854C529.313,60.752 534.137,53.316 538.426,45.746C546.678,31.185 553.739,16.233 560.191,0.858C560.259,0.573 560.323,0.286 560.384,0L564.546,0ZM536.341,0C529.964,4.963 523.581,9.923 517.156,14.832C506.701,22.821 496.354,31.339 484.645,37.453C463.382,48.555 438.906,54.442 415.13,56.68C366.511,61.258 317.921,48.899 277.069,22.331C267.224,15.929 255.113,8.899 245.658,0L253.029,0C261.702,6.905 271.156,13.023 280.473,18.971C299.964,31.414 321.145,40.746 343.613,46.303C387.564,57.171 435.887,53.999 477.412,35.562C490.91,29.569 502.298,20.448 514.025,11.642C519.233,7.73 524.47,3.858 529.715,0L536.341,0ZM519.333,0C511.446,4.422 503.569,8.866 495.666,13.263C486.697,18.253 477.622,23.013 468.324,27.2C461.924,30.368 455.389,33.25 448.653,35.643C434.226,40.766 419.019,43.246 403.736,43.626C398.994,43.744 394.263,43.666 389.544,43.422C377.437,43.104 365.358,41.608 353.523,38.977C343.901,36.838 334.629,33.856 325.572,30.333C320.02,28.414 314.523,26.33 309.111,24.049C295.838,18.455 283.424,11.06 270.306,5.098C266.84,3.523 263.396,1.864 260.096,0L276.337,0C280.005,1.881 283.673,3.762 287.34,5.645C297.871,11.054 308.424,16.282 319.212,20.856C322.394,22.06 325.599,23.203 328.818,24.298C335.655,26.623 343.277,28.164 349.831,31.312C384.293,37.886 419.932,39.91 453.119,26.671C468.407,20.571 482.65,12.219 496.848,3.971C499.067,2.682 501.305,1.349 503.565,0L519.333,0Z" style="fill-rule:nonzero;"/>
    </g>
</svg>
