<?xml version="1.0" encoding="UTF-8" standalone="no"?>
<!DOCTYPE svg PUBLIC "-//W3C//DTD SVG 1.1//EN" "http://www.w3.org/Graphics/SVG/1.1/DTD/svg11.dtd">
<svg width="100%" height="100%" viewBox="0 0 1000 1000" version="1.1" xmlns="http://www.w3.org/2000/svg" xmlns:xlink="http://www.w3.org/1999/xlink" xml:space="preserve" xmlns:serif="http://www.serif.com/" style="fill-rule:evenodd;clip-rule:evenodd;stroke-linejoin:round;stroke-miterlimit:2;">
    <path d="M650.95,1000C651.404,998.019 651.936,996.11 652.509,994.322C655.684,984.419 662.712,972.3 673.566,969.532C684.895,966.643 692.773,977.536 695.373,987.063C696.518,991.258 696.956,995.631 697.185,1000L691.992,1000C690.774,987.793 686.985,977.3 675.273,980.187C666.572,982.331 661.018,992.154 658.269,1000L650.95,1000ZM979.528,1000C979.866,998.455 980.246,996.918 980.668,995.392C983.524,985.06 989.337,972.569 1000,968.952L1000,976.438C991.482,980.15 986.782,991.433 984.403,1000L979.528,1000ZM21.683,1000C20.84,990.442 19.49,976.826 8.227,975.343C5.153,974.938 2.423,975.382 0,976.438L0,968.952C1.905,968.306 3.963,967.943 6.187,967.926C19.223,967.825 24.072,981.299 25.583,992.062C25.954,994.699 26.276,997.347 26.566,1000L21.683,1000ZM810.709,1000C810.978,998.032 811.358,996.08 811.87,994.158C814.61,983.875 822.102,972.534 832.975,969.713C838.313,968.327 844.884,968.697 849.545,971.809C854.627,975.203 857.064,981.519 858.909,987.091C860.309,991.317 861.339,995.63 862.078,1000L856.908,1000C856.384,997.428 855.735,994.883 854.934,992.387C853.249,987.139 851.139,980.303 845.471,978.185C840.261,976.237 834.859,977.943 830.306,980.723C823.143,985.095 819.064,992.198 817.24,1000L810.709,1000ZM317.552,1000C317.683,999.601 317.816,999.202 317.953,998.805C321.413,988.723 326.071,976.427 335.712,970.676C347.112,963.875 356.173,973.554 358.655,984.403C359.824,989.513 360.204,994.77 360.527,1000L356.462,1000C356.379,998.053 356.261,996.126 356.068,994.233C355.028,984.042 347.427,971.239 336.244,980.096C330.291,984.81 327.044,992.665 324.618,1000L317.552,1000ZM145.902,1000C148.208,988.909 154.349,977.966 165.768,974.41C176.695,971.007 187.282,975.86 191.405,986.631C193.041,990.904 193.677,995.451 193.999,1000L188.328,1000C188.207,998.952 188.07,997.903 187.912,996.851C186.375,986.65 179.009,980.164 168.448,982.604C159.529,984.664 154.244,991.801 151.763,1000L145.902,1000ZM486.637,1000C486.769,999.574 486.906,999.149 487.047,998.726C490.474,988.434 497.244,975.369 508.04,971.285C519.271,967.035 527.815,974.563 530.709,985.032C532.045,989.862 532.496,994.966 532.785,1000L527.389,1000C527.226,996.921 526.922,993.855 526.288,990.821C525.348,986.319 523.509,981.535 518.985,979.6C513.994,977.465 508.357,979.637 504.469,982.978C499.465,987.278 495.881,993.499 493.544,1000L486.637,1000ZM570.886,956.961C570.136,937.171 571.061,914.811 586.824,900.454C588.434,898.988 590.626,896.855 592.995,897.817C594.828,898.562 595.714,901.208 596.275,902.886C597.964,907.948 598.697,913.649 599.16,918.945C600.11,929.796 597.936,940.01 597.323,950.744C597.241,952.17 599.235,954.586 600.256,952.496C605.865,941.018 605.364,925.556 603.809,913.195C602.99,906.679 600.665,885.716 589.232,889.67C584.246,891.395 580.108,896.968 577.163,901.096C573.632,906.045 570.956,911.689 569.095,917.467C564.894,930.509 564.619,944.541 566.175,958.054C566.654,962.204 571.023,960.588 570.886,956.961ZM406.701,954.722C408.396,950.608 408.058,945.868 408.134,941.491C408.222,936.286 408.178,931.056 408.803,925.882C409.843,917.278 413.019,906.597 419.509,900.411C424.258,895.885 427.436,902.139 429.719,905.916C432.011,909.709 433.852,913.835 435.158,918.073C436.5,922.432 437.238,926.94 437.546,931.484C437.822,935.551 437.303,939.632 437.836,943.659C438.2,946.404 440.905,946.815 442.027,944.387C444.186,939.716 443.936,933.156 443.521,928.109C443.053,922.427 441.904,916.854 440.099,911.448C438.272,905.975 435.709,900.708 432.529,895.892C429.868,891.863 426.457,887.118 420.958,888.379C415.803,889.563 412.278,895.213 409.812,899.443C406.842,904.539 404.647,910.033 403.236,915.756C401.677,922.079 401.371,928.516 401.347,935.008C401.324,941.409 400.392,948.75 402.716,954.82C403.597,957.118 405.85,956.788 406.701,954.722ZM237.119,952.683C238.684,938.251 233.463,912.355 251.684,906.462C272.281,899.802 270.218,933.329 273.962,944.092C274.707,946.235 276.879,945.2 277.133,943.379C279.305,927.798 275.785,890.204 251.454,895.874C228.954,901.119 229.062,935.388 233.213,952.779C233.845,955.427 236.798,955.643 237.119,952.683ZM905.51,953.353C906.435,948.884 905.436,944.266 905.439,939.737C905.442,934.821 906.027,929.949 906.967,925.127C907.96,920.033 909.565,915.05 911.668,910.305C913.343,906.527 915.764,901.337 920.262,900.45C929.433,898.639 932.622,916.267 933.969,922.064C935.126,927.047 935.896,932.119 936.281,937.22C936.609,941.567 935.503,947.158 937.506,951.12C938.061,952.216 939.155,952.749 939.974,951.541C943.071,946.985 941.342,938.663 940.858,933.476C940.234,926.796 939.094,920.156 937.361,913.672C935.182,905.523 931.006,889.601 919.59,891.116C908.963,892.525 904.621,909.182 902.541,917.564C900.944,924.005 900.196,930.584 900.269,937.223C900.328,942.559 900.158,949.759 903.559,954.194C904.381,955.267 905.304,954.349 905.51,953.353ZM68.808,953.318C70.679,950.921 70.142,947.637 70.385,944.745C70.69,941.12 71.003,937.505 71.583,933.911C72.796,926.401 74.662,918.255 78.099,911.407C79.766,908.083 82.66,906.811 85.889,909.262C88.622,911.337 89.73,915.417 90.706,918.519C93.173,926.359 93.676,934.747 93.845,942.914C93.904,945.816 96.791,946.703 97.539,943.581C100.06,933.069 98.701,922.171 95.314,911.972C93.038,905.121 86.861,894.41 77.99,899.19C74.644,900.994 73.105,905.012 71.76,908.324C69.659,913.497 68.018,918.883 66.872,924.348C65.727,929.805 65.049,935.445 64.921,941.022C64.835,944.817 64.246,950.815 67.231,953.668C67.791,954.204 68.43,953.802 68.808,953.318ZM738.866,948.99C740.434,946.017 740.064,943.014 740.303,939.749C740.602,935.656 741.241,931.447 742.31,927.483C744.36,919.886 748.168,912.614 753.296,906.644C755.839,903.684 760.025,898.458 764.395,898.876C767.76,899.198 769.529,902.54 770.502,905.393C773.677,914.697 772.605,924.948 772.319,934.533C772.251,936.851 774.862,938.689 775.939,935.924C780.107,925.223 779.635,911.157 775.982,900.267C774.625,896.219 772.33,891.816 768.425,889.703C763.47,887.021 758.436,889.477 754.522,892.832C746.237,899.928 740.264,909.972 737.146,920.356C735.577,925.581 734.554,930.954 734.518,936.42C734.492,940.454 734.125,946.427 737.505,949.292C737.95,949.67 738.598,949.496 738.866,948.99ZM152.64,874.958C153.429,870.56 151.869,865.814 151.566,861.371C151.202,856.045 151.472,850.73 152.374,845.469C153.229,840.486 154.665,835.616 156.636,830.96C158.285,827.066 161.337,819.815 166.6,819.929C171.319,820.031 173.639,826.589 175.161,830.115C177.167,834.763 178.624,839.596 179.72,844.533C181.99,854.766 182.164,865.15 183.708,875.461C184.433,880.306 189.111,878.283 189.119,874.206C189.146,860.822 187.184,846.428 183.33,833.615C180.98,825.803 175.659,807.645 164.174,810.505C153.026,813.281 148.735,831.081 146.83,840.577C145.568,846.869 145.1,853.394 145.423,859.802C145.692,865.155 145.739,872.861 149.636,876.923C151.056,878.403 152.435,876.1 152.64,874.958ZM1000,818.867C999.645,818.899 999.281,818.954 998.907,819.033C994.151,820.04 991.897,825.992 990.042,829.931C988.089,834.082 986.485,838.418 985.209,842.823C982.549,852.002 981.466,861.482 981.82,871.021C982.028,876.628 976.169,876.693 975.872,871.167C975.192,858.555 976.797,845.931 980.917,833.976C983.659,826.017 988.808,809.478 999.366,809.478C999.58,809.478 999.792,809.483 1000,809.492L1000,818.867ZM322.562,870.393C323.031,859.41 322.262,849.056 324.91,838.198C326.216,832.844 328.045,827.597 330.297,822.568C332.131,818.47 335.236,809.782 340.851,810.476C346.705,811.2 347.996,819.241 349.194,823.826C350.687,829.536 351.921,835.314 352.884,841.137C353.827,846.838 354.503,852.575 354.897,858.339C355.239,863.354 354.23,869.476 356.99,873.85C357.839,875.197 359.471,875.055 360.29,873.769C363.718,868.38 361.484,858.664 360.892,852.609C360.185,845.371 359.142,838.168 357.678,831.043C355.757,821.691 353.132,800.163 339.691,800.534C333.97,800.691 330.544,806.124 328.127,810.598C324.692,816.957 321.925,823.708 319.958,830.664C316.433,843.131 313.669,858.875 317.201,871.635C318.485,876.279 322.385,874.543 322.562,870.393ZM0,809.492C11.497,809.992 15.548,824.08 17.67,833.154C20.569,845.552 22.078,859.636 19.304,872.17C18.424,876.144 14.541,875.022 14.596,871.321C14.748,861.099 15.278,851.163 13.406,841.033C12.162,834.296 9.685,817.997 0,818.867L0,809.492ZM487.504,869.078C487.789,859.023 486.293,849.39 487.858,839.297C488.639,834.261 489.835,829.318 491.466,824.489C492.565,821.239 493.948,816.653 497.479,815.238C512.608,809.175 511.634,858.316 512.322,865.206C512.553,867.52 515.153,870.146 516.376,866.763C520.747,854.667 518.335,839.05 515.336,826.879C513.319,818.698 508.998,802.751 497.476,804.834C486.942,806.738 484.021,822.883 482.259,831.292C479.692,843.545 478.03,859.273 482.633,871.229C484.209,875.323 487.424,871.918 487.504,869.078ZM821.925,871.429C823.467,868.057 822.744,863.812 822.667,860.201C822.569,855.641 822.947,851.11 823.751,846.62C825.369,837.575 828.673,828.842 833.636,821.098C836.312,816.921 840.021,813.98 844.667,817.685C848.524,820.76 848.594,826.353 848.836,830.85C849.363,840.665 848.871,851.107 850.844,860.756C851.328,863.125 853.788,863.07 854.156,860.675C855.211,853.828 854.801,846.405 854.751,839.483C854.705,833.169 855.192,826.578 853.962,820.35C852.247,811.665 842.415,800.599 833.31,808.394C829.215,811.899 826.529,817.616 824.245,822.39C821.666,827.783 819.687,833.396 818.338,839.223C816.99,845.049 816.347,851.053 816.302,857.032C816.267,861.57 815.899,869.132 819.701,872.381C820.65,873.191 821.529,872.296 821.925,871.429ZM655.836,867.793C657.889,858.363 657.075,848.657 659.603,839.202C661.566,831.853 664.518,823.425 671.105,818.932C680.419,812.577 680.083,831.867 680.634,836.662C681.236,841.902 681.808,847.147 682.44,852.385C682.857,855.832 682.556,860.519 685.443,862.914C686.035,863.404 686.732,863.13 687.113,862.543C690.042,858.045 687.727,850.248 687.25,845.217C686.596,838.308 685.981,831.396 685.355,824.484C684.693,817.198 681.459,803.711 671.099,807.904C661.789,811.672 656.681,823.511 654.154,832.44C651.114,843.182 648.248,857.804 652.759,868.484C653.635,870.56 655.455,869.544 655.836,867.793ZM406.407,787.354C407.335,778.144 406.378,769.132 408.404,759.946C410.177,751.902 413.661,740.314 421.406,736.076C441.565,725.044 437.896,775.125 439.587,783.288C440.02,785.376 442.727,786.667 443.449,783.958C445.081,777.83 444.289,770.972 443.872,764.701C443.431,758.07 442.811,751.314 441.488,744.795C439.719,736.08 433.316,724.675 422.58,728.262C412.575,731.604 407.538,744.626 404.449,753.66C400.881,764.091 398.261,777.646 402.07,788.329C403.085,791.174 406.148,789.927 406.407,787.354ZM71.691,785.368C71.048,776.308 71.205,767.179 72.786,758.22C74.03,751.171 76.176,740.769 84.96,739.874C102.371,738.097 100.733,770.697 102.001,780.973C102.195,782.549 104.159,783.207 104.685,781.439C107.825,770.882 106.15,758.417 103.149,748.001C100.74,739.642 94.942,729.084 84.717,729.974C74.691,730.847 69.767,741.037 67.782,749.675C65.011,761.736 64.798,774.328 66.73,786.518C67.412,790.818 71.966,789.247 71.691,785.368ZM240.16,782.326C239.551,773.363 240.295,764.696 243.449,756.222C244.824,752.527 246.566,748.976 248.64,745.624C250.578,742.492 253.612,736.775 257.379,735.613C265.237,733.188 265.777,752.661 266.328,757.24C266.964,762.523 267.324,767.831 267.534,773.146C267.703,777.472 267.243,781.961 268.685,786.08C269.403,788.132 271.408,787.727 272.139,785.995C274.434,780.558 273.279,773.077 272.969,767.301C272.608,760.569 271.901,753.846 270.894,747.181C269.899,740.598 267.723,724.22 257.298,726.864C252.989,727.957 249.811,732.423 247.269,735.774C243.856,740.274 241.107,745.245 239.016,750.489C234.861,760.911 233.369,772.43 234.949,783.534C235.594,788.068 240.436,786.39 240.16,782.326ZM905.049,785.767C907.558,781.707 906.122,776.12 906.334,771.548C906.613,765.531 907.532,759.421 909.092,753.6C911.489,744.65 915.845,734.085 925.071,730.319C928.022,729.115 930.32,728.989 932.222,731.77C933.646,733.852 934.793,736.122 935.784,738.438C937.84,743.242 939.05,748.327 939.663,753.507C940.273,758.654 940.31,763.895 940.003,769.064C939.709,774.032 938.031,779.597 939.235,784.484C939.721,786.46 941.57,787.998 943.086,785.923C946.475,781.286 945.933,772.822 946.186,767.286C946.497,760.428 946.171,753.496 944.943,746.736C943.736,740.097 941.642,733.616 938.437,727.67C935.631,722.466 932.678,718.214 926.192,719.604C914.462,722.118 907.534,734.567 904.119,745.034C901.778,752.214 900.344,759.655 899.858,767.187C899.506,772.643 897.98,782.199 902.359,786.365C903.247,787.209 904.487,786.675 905.049,785.767ZM739.88,783.266C740.414,775.966 740.855,768.73 742.463,761.563C743.75,755.832 745.819,745.54 750.882,741.758C762.13,733.356 766.326,768.625 767.439,774.198C768.265,778.333 772.179,776.725 772.149,773.106C772.07,763.528 768.562,724.533 750.924,731.162C743.027,734.131 739.969,745.695 737.984,752.896C735.265,762.759 733.896,773.195 735.479,783.374C735.963,786.485 739.644,786.495 739.88,783.266ZM573.634,780.864C572.389,766.945 574.695,749.784 586.533,740.369C594.204,734.267 599.998,745.571 602.147,751.446C605.022,759.303 604.987,767.299 606.408,775.414C606.866,778.026 610.176,779.411 611.071,776.223C614.022,765.705 611.067,753.522 606.921,743.663C603.881,736.431 597.09,725.82 587.677,728.787C579.063,731.501 573.04,743.503 570.277,751.372C566.911,760.956 565.611,772.188 568.394,782.079C569.59,786.332 574.019,785.162 573.634,780.864ZM1000,640.541L1000,650.041C990.6,651.3 986.769,666.713 984.746,674.264C983.424,679.2 982.515,684.268 982.034,689.355C981.556,694.421 982.425,699.835 981.413,704.793C980.902,707.297 978.057,708.939 976.892,705.809C974.758,700.068 975.571,693.029 976.074,687.023C976.593,680.83 977.761,674.728 979.462,668.752C982.176,659.226 986.834,643.534 997.951,640.883C998.644,640.718 999.328,640.605 1000,640.541ZM152.534,705.041C154.873,701.826 153.618,696.645 153.79,692.895C154.045,687.338 154.852,681.777 156.087,676.355C157.319,670.952 159.264,665.738 161.445,660.65C163.249,656.438 165.407,650.429 169.067,647.392C173.981,643.314 179.229,648.103 181.007,652.894C182.962,658.159 183.783,664.088 184.685,669.614C185.654,675.547 186.295,681.519 186.621,687.52C186.931,693.23 186.387,699.141 187.462,704.767C187.895,707.035 190.765,708.303 191.559,705.478C193.513,698.52 192.742,690.668 192.297,683.531C191.831,676.073 190.933,668.628 189.591,661.277C187.954,652.309 183.586,632.23 169.846,636.808C164.571,638.565 161.822,644.116 159.544,648.752C156.465,655.02 154.196,661.441 152.466,668.199C150.759,674.87 149.568,681.586 149.104,688.462C148.788,693.149 147.133,701.793 150.895,705.405C151.463,705.951 152.157,705.56 152.534,705.041ZM654.043,704.515C655.813,696.362 655.2,687.777 656.972,679.535C658.853,670.786 662.154,661.871 666.94,654.284C668.972,651.062 672.67,647.48 675.844,651.584C678.206,654.64 678.609,659.866 679.319,663.523C681.116,672.782 681.311,682.153 682.417,691.491C682.765,694.423 685.723,693.933 686.225,691.398C688.653,679.127 686.795,665.595 684.005,653.511C682.199,645.69 675.92,634.201 666.583,641.435C662.504,644.596 660.064,649.772 657.861,654.295C655.302,659.554 653.243,664.981 651.751,670.638C648.999,681.078 646.253,694.929 650.452,705.322C651.442,707.775 653.605,706.532 654.043,704.515ZM321.698,699.596C321.409,688.046 322.139,676.412 324.573,665.102C326.376,656.726 329.674,641.375 341.415,643.631C353.491,645.951 354.783,661.512 354.954,671.325C355.139,682.009 353.678,693 358.734,702.758C359.663,704.552 361.285,703.342 361.194,701.672C360.405,687.347 362.145,672.553 359.865,658.337C358.135,647.552 351.74,633.427 338.782,633.625C327.051,633.806 322.053,646.824 319.684,656.324C316.038,670.948 314.936,685.785 316.737,700.746C317.266,705.142 321.793,703.388 321.698,699.596ZM490.256,700.567C491.264,695.787 490.194,690.648 489.952,685.803C489.67,680.141 489.404,674.405 489.804,668.745C490.429,659.875 493.543,646.773 502.559,642.421C508.073,639.759 509.892,648.179 511.407,652.028C513.337,656.931 514.97,661.94 516.264,667.048C518.894,677.429 519.107,688.089 521.329,698.487C521.93,701.297 524.661,701.123 525.187,698.392C527.726,685.194 524.114,670.117 520.356,657.447C518.488,651.153 516.332,644.82 513.449,638.91C511.321,634.547 508.078,630.504 502.725,631.908C491.859,634.756 486.034,649.694 484.158,659.425C482.774,666.609 482.745,674.086 483.065,681.368C483.34,687.669 482.941,695.833 485.826,701.563C487.234,704.357 489.69,703.257 490.256,700.567ZM822.718,700.632C824.454,696.542 824.016,691.867 824.115,687.508C824.24,682.045 824.609,676.536 825.69,671.171C827.442,662.481 831.464,653.948 838.365,648.178C839.9,646.895 841.731,645.419 843.632,644.712C846.75,643.553 848.289,645.257 849.869,647.77C852.289,651.617 852.904,656.539 853.407,660.964C854.685,672.184 854.382,683.367 854.784,694.621C854.906,698.003 858.745,699.524 859.34,695.445C860.733,685.888 862.89,622.792 839.887,636.805C830.711,642.394 824.65,651.967 821.625,662.123C819.785,668.302 818.907,674.711 818.643,681.143C818.391,687.276 817.654,695.059 820.504,700.687C821.098,701.86 822.192,701.871 822.718,700.632ZM0,640.541C9.523,639.639 17.08,648.488 19.691,656.926C23.556,669.42 20.69,682.949 22.811,695.718C23.027,697.018 21.821,700.007 20.38,697.982C14.903,690.287 15.98,680.448 15.778,671.546C15.573,662.476 12.555,649.618 0.959,649.963C0.633,649.972 0.313,649.999 0,650.041L0,640.541ZM902.469,622.826C903.727,614.078 902.329,605.088 903.502,596.264C904.613,587.912 907.1,577.225 913.982,571.625C917.869,568.461 922.796,568.62 926.132,572.52C929.448,576.396 929.608,582.434 930.066,587.252C930.989,596.946 930.064,607.199 931.971,616.739C932.354,618.652 934.782,619.762 935.456,617.344C937.126,611.347 936.915,604.769 936.689,598.593C936.445,591.938 936.073,585.177 935.04,578.59C933.609,569.459 927.072,556.89 915.753,560.777C905.764,564.208 901.051,577.38 899.015,586.686C896.592,597.766 895.66,611.847 898.414,622.926C899.108,625.714 902.032,625.86 902.469,622.826ZM239.542,623.327C240.807,619.222 239.994,615.047 239.949,610.815C239.895,605.637 240.302,600.466 241.133,595.354C242.417,587.456 245.195,575.1 254.059,572.258C263.557,569.213 267.779,585.502 269.346,591.812C270.503,596.472 271.167,601.224 271.293,606.024C271.407,610.374 270.834,614.596 271.502,618.916C271.75,620.519 273.998,622.426 275.051,620.242C279.916,610.159 276.827,595.179 273.65,584.946C271.172,576.964 266.038,562.539 255.31,563.492C244.631,564.441 239.167,577.703 236.986,586.54C235.461,592.716 234.643,599.043 234.385,605.396C234.151,611.146 233.349,618.954 236.697,623.959C237.582,625.282 239.123,624.688 239.542,623.327ZM67.351,619.966C67.569,611.386 69.054,603.199 71.003,594.859C72.655,587.793 74.492,578.615 82.373,575.986C91.169,573.05 94.982,582.286 96.057,589.19C97.441,598.079 97.888,607.075 98.555,616.036C98.951,621.355 104.324,621.323 104.298,615.896C104.246,604.461 104.045,591.535 100.9,580.47C98.622,572.454 92.241,564.212 82.928,566.044C73.524,567.894 68.946,577.304 66.75,585.701C63.862,596.747 61.191,608.619 61.915,620.099C62.236,625.185 67.222,625.056 67.351,619.966ZM572.975,618.164C573.604,609.977 574.813,601.756 576.963,593.822C578.831,586.93 580.969,577.78 586.246,572.602C592.173,566.786 598.285,572.061 600.46,578.346C603.161,586.146 602.146,594.367 603.143,602.386C603.389,604.364 605.738,605.079 606.44,602.959C609.888,592.542 607.294,554.827 588.095,561.6C579.628,564.587 576.149,575.609 573.639,583.233C570.006,594.269 568.045,605.598 567.627,617.198C567.482,621.242 572.612,622.896 572.975,618.164ZM409.334,617.077C409.979,607.781 410.208,598.61 412.14,589.449C413.746,581.831 416.954,570.326 426.855,570.702C435.225,571.02 436.026,581.706 437.002,587.961C438.502,597.569 439.322,607.635 441.803,617.04C443.039,621.726 447.614,620.251 447.415,615.739C447.131,609.304 445.849,602.863 444.927,596.493C444.051,590.445 443.44,584.284 442.185,578.301C440.442,569.994 435.881,559.953 425.904,560.196C415.497,560.449 409.791,571.046 407.452,579.811C404.273,591.723 402.597,604.938 404.478,617.196C405.003,620.627 409.087,620.642 409.334,617.077ZM741.22,617.324C742.024,608.704 741.158,600.304 743.135,591.759C744.849,584.349 747.957,573.757 754.606,569.325C764.831,562.51 767.324,575.486 768.706,582.531C769.565,586.911 770.298,591.324 770.759,595.764C771.213,600.143 771.004,604.554 772.35,608.766C773.139,611.235 776.137,611.119 776.823,608.656C778.383,603.049 777.349,596.747 776.724,591.028C776.042,584.785 775.04,578.573 773.446,572.493C771.136,563.692 765.45,554.463 754.89,558.589C745.402,562.297 740.893,575.077 738.377,583.992C735.434,594.424 733.163,607.804 737.349,618.194C738.334,620.639 740.998,619.7 741.22,617.324ZM153.005,539.247C152.228,528.629 151.758,518.593 154.414,508.146C156.393,500.362 160.895,484.274 170.842,483.628C182.8,482.85 182.768,498.744 182.829,506.736C182.906,516.825 182.739,527.184 186.606,536.683C188.674,541.765 193.172,536.757 192.094,532.965C188.395,519.944 190.695,506.73 188.669,493.537C187.198,483.954 180.114,471.284 168.478,474.987C157.987,478.325 152.878,492.603 150.145,502.054C146.677,514.046 145.156,528.089 148.546,540.281C149.559,543.928 153.272,542.889 153.005,539.247ZM318.78,536.887C320.037,533.082 318.466,529.292 318.071,525.443C317.655,521.391 317.822,517.3 318.469,513.283C319.868,504.606 323.48,496.311 329.05,489.491C331.608,486.357 334.625,483.355 337.975,481.069C345.298,476.072 347.266,482.294 348.658,488.323C351.241,499.509 352,510.637 352.4,522.07C352.61,528.093 358.483,527.789 358.758,521.913C359.415,507.908 357.683,492.054 353.1,478.756C351.466,474.015 348.124,468.78 342.443,469.001C336.927,469.216 331.612,474.394 328.017,478.133C320.275,486.187 315.11,496.395 312.739,507.281C311.541,512.784 311.153,518.566 311.592,524.182C311.906,528.198 312.016,536.58 316.385,538.454C317.481,538.924 318.473,537.817 318.78,536.887ZM1000,484.206C999.878,484.191 999.755,484.18 999.63,484.173C990.22,483.601 984.67,499.468 983.033,506.593C980.97,515.568 980.802,524.967 980.348,534.13C980.139,538.356 976.005,538.558 975.784,534.242C975.203,522.863 975.437,511.439 978.381,500.358C980.762,491.399 986.122,478.945 995.558,475.428C997.133,474.84 998.613,474.619 1000,474.695L1000,484.206ZM486.184,533.73C487.836,529.838 486.549,525.096 486.542,520.955C486.535,515.885 487.07,510.834 487.941,505.842C488.825,500.787 490.222,495.845 492.056,491.054C493.915,486.2 496.276,479.371 501.322,476.956C510.983,472.334 516.409,491.311 518.007,497.905C519.144,502.591 519.752,507.376 519.804,512.2C519.858,517.146 518.575,522.042 518.849,526.957C518.966,529.048 521.454,532.719 523.249,529.584C526.252,524.34 526.214,517.109 526.113,511.218C526.001,504.8 524.988,498.414 523.168,492.261C520.609,483.6 514.502,464.871 502.365,467.787C496.715,469.143 493.381,474.199 490.814,479.028C487.707,484.873 485.284,491.073 483.576,497.464C481.88,503.806 480.921,510.224 480.668,516.784C480.458,522.218 479.522,530.601 483.441,534.905C484.487,536.053 485.787,534.667 486.184,533.73ZM0,474.695C8.609,475.17 13.638,487.122 15.413,494.466C18.183,505.927 15.194,517.543 20.621,528.406C21.468,530.101 20.333,535.112 17.718,533.075C11.104,527.925 10.814,518.04 10.587,510.368C10.432,505.141 10.294,500.041 8.631,495.021C7.272,490.915 4.921,484.79 0,484.206L0,474.695ZM821.733,531.566C822.701,527.386 821.554,522.87 821.364,518.629C821.131,513.423 821.549,508.208 822.639,503.111C824.338,495.162 827.848,483.852 836.28,480.572C847.336,476.271 850.567,490.275 851.698,497.997C853.186,508.163 853.721,519.001 856.732,528.839C857.872,532.565 860.917,529.312 860.988,526.961C861.202,519.928 859.785,512.763 858.961,505.789C858.161,499.015 857.865,491.903 855.914,485.338C853.101,475.879 844.295,466.564 833.772,471.567C823.961,476.232 819.634,488.426 817.314,498.208C815.86,504.335 815.222,510.708 815.402,517.003C815.546,522.074 815.58,529.277 819.433,533.071C820.569,534.189 821.529,532.447 821.733,531.566ZM655.629,532.1C657.14,528.403 655.75,524.098 655.388,520.269C654.924,515.365 654.654,510.409 655.061,505.49C655.702,497.719 658.311,481.841 667.429,479.605C677.225,477.203 683.711,486.475 685.119,494.907C686.649,504.059 683.298,515.347 687.371,523.882C688.633,526.526 691.353,525.641 691.708,522.908C692.571,516.265 691.935,508.936 691.944,502.207C691.953,496.381 691.406,490.493 689.455,484.968C686.164,475.649 676.523,466.829 665.983,470.559C655.782,474.169 651.674,488.941 650.179,498.409C649.165,504.826 649.083,511.426 649.673,517.886C650.057,522.082 649.962,530.204 653.822,532.872C654.621,533.425 655.3,532.905 655.629,532.1ZM902.57,453.42C903.946,444.94 902.468,435.926 903.428,427.318C904.428,418.353 906.723,408.473 912.672,401.396C921.496,390.897 927.056,409.348 928.967,415.863C931.809,425.555 931.902,435.489 931.14,445.483C930.966,447.774 933.845,451.713 934.997,447.828C938.537,435.879 937.774,422.815 934.424,410.892C932.424,403.773 926.802,385.293 916.046,388.893C905.698,392.357 901.076,407.699 899.099,417.133C897.905,422.833 897.437,428.677 897.248,434.49C897.049,440.595 896.591,447.566 898.02,453.532C898.785,456.72 902.027,456.766 902.57,453.42ZM734.927,452.519C734.968,442.73 735.978,433.006 739.055,423.675C741.893,415.07 746.235,404.656 753.223,398.524C755.322,396.683 757.25,395.273 759.95,396.129C762.694,396.999 763.613,399.303 764.445,401.952C765.938,406.71 766.255,411.933 766.699,416.87C767.158,421.959 767.446,427.064 767.567,432.173C767.693,437.461 767.139,443.132 768.272,448.319C768.751,450.517 771.24,451.582 772.133,448.989C774.224,442.914 773.718,435.5 773.644,429.149C773.56,421.932 773.166,414.703 772.371,407.527C771.465,399.35 766.81,380.036 754.932,387.198C745.29,393.011 739.358,405.419 735.608,415.573C731.272,427.315 729.221,440.159 730.619,452.625C731.06,456.554 734.909,456.637 734.927,452.519ZM70.476,450.283C70.466,439.122 69.116,403.681 88.783,407.071C98.421,408.732 99.199,419.448 100.075,427.314C100.596,432 101.113,436.687 101.633,441.373C102.122,445.785 102.207,450.115 104.149,454.168C105.293,456.558 107.421,455.565 107.879,453.329C109.182,446.979 107.5,440.105 106.787,433.728C106.171,428.222 105.798,422.612 104.766,417.163C102.979,407.737 97.617,397.988 86.819,397.838C64.004,397.521 63.661,436.588 65.666,451.398C66.249,455.707 70.479,453.908 70.476,450.283ZM407.596,452.553C409.258,436.637 406.226,418.463 418.799,405.924C422.009,402.722 426.39,400.734 430.247,404.143C434.109,407.556 433.747,413.593 433.976,418.276C434.485,428.682 434.84,439.104 435.655,449.491C436.027,454.235 440.796,454.217 440.783,449.365C440.763,442.202 440.487,435.048 440.251,427.89C440.034,421.334 440.298,414.522 439.206,408.033C437.683,398.983 429.842,388.752 419.783,394.343C411.016,399.216 406.148,410.177 403.897,419.469C401.377,429.871 400.544,442.083 402.206,452.685C402.811,456.547 407.188,456.456 407.596,452.553ZM572.363,452.274C573.403,449.039 573.046,445.716 573.124,442.356C573.215,438.439 573.492,434.532 574.073,430.656C575.207,423.094 577.537,414.938 582.748,409.104C585.456,406.071 590.353,403.078 593.39,407.46C595.723,410.825 596.508,416.056 597.313,419.955C599.05,428.363 598.242,436.863 599.624,445.23C600.027,447.674 602.462,448.232 603.485,445.9C608.103,435.376 604.529,385.072 584.174,396.766C575.87,401.537 571.707,412.49 569.574,421.306C568.341,426.404 567.762,431.592 567.478,436.822C567.206,441.833 566.477,447.606 568.246,452.375C569.082,454.629 571.633,454.548 572.363,452.274ZM238.633,450.257C239.689,446.019 238.752,441.335 238.901,436.974C239.059,432.328 239.538,427.607 240.551,423.063C242.002,416.559 244.956,409.429 251.101,406.078C254.679,404.126 259.746,403.389 262.094,407.485C264.155,411.08 265.338,415.758 266.365,419.75C268.708,428.847 269.287,438.114 269.084,447.478C268.995,451.576 273.904,453.234 274.5,448.456C276.04,436.094 274.696,423.576 271.131,411.658C268.264,402.074 263.799,390.715 251.584,395.317C242.913,398.583 238.142,407.824 235.843,416.236C234.404,421.502 233.718,426.902 233.391,432.343C233.044,438.111 232.118,445.827 234.762,451.127C236.017,453.641 238.066,452.531 238.633,450.257ZM1000,305.5L1000,315.364C998.954,315.44 997.813,315.812 996.571,316.544C988.603,321.242 983.611,332.802 980.971,341.187C977.984,350.674 977.37,360.802 979.014,370.595C979.711,374.745 975.025,378.053 974.022,372.837C971.714,360.822 972.338,348.614 975.917,336.905C979.037,326.693 984.932,313.553 994.31,307.628C996.388,306.315 998.278,305.651 1000,305.5ZM655.483,371.595C657.45,368.172 656.382,363.84 656.174,360.081C655.92,355.516 655.774,350.91 655.984,346.341C656.406,337.148 658.747,325.49 666.611,319.631C676.852,312.001 683.039,328.029 684.38,335.848C685.229,340.799 685.338,345.853 685.224,350.864C685.122,355.335 683.582,360.97 685.559,365.113C686.247,366.552 687.474,366.927 688.513,365.617C691.607,361.719 690.597,352.925 690.637,348.155C690.693,341.574 690.125,334.98 688.62,328.564C686.438,319.259 679.705,303.364 667.293,308.279C656.651,312.492 651.899,327.049 650.413,337.302C649.51,343.532 649.417,349.911 649.917,356.18C650.278,360.71 649.746,368.797 653.38,372.062C654.074,372.685 655.054,372.341 655.483,371.595ZM324.173,366.677C323.022,356.695 324.85,347.8 328.429,338.469C330.191,333.878 332.205,329.374 334.3,324.927C336.186,320.923 338.564,315.936 343.46,315.216C353.715,313.708 352.124,331.646 352.535,337.763C353.186,347.45 353.266,357.471 354.86,367.051C355.779,372.567 360.868,370.186 360.974,365.633C361.289,352.077 359.508,337.861 358.212,324.361C357.402,315.924 352.994,302.928 341.92,305.557C331.276,308.084 326.982,323.133 323.481,331.978C318.947,343.43 315.315,356.92 318.594,369.182C320.164,375.052 324.697,371.221 324.173,366.677ZM488.067,368.81C488.647,360.12 488.612,351.671 490.781,343.151C492.947,334.642 496.454,325.957 501.537,318.753C504.655,314.335 509.422,314.335 512.621,318.799C515.05,322.189 516.011,326.98 516.866,330.97C518.968,340.781 517.935,349.838 516.808,359.655C516.456,362.718 520.042,367.407 521.711,362.636C525.709,351.211 524.995,337.315 522.216,325.688C520.293,317.634 515.338,302.852 504.097,305.915C499.014,307.3 496.24,312.742 493.876,317.004C490.954,322.27 488.518,327.845 486.684,333.581C483.157,344.61 480.785,357.404 482.777,368.94C483.414,372.63 487.805,372.736 488.067,368.81ZM150.197,366.502C150.016,362.185 148.563,358.035 148.25,353.706C147.945,349.483 148.155,345.245 148.843,341.068C150.328,332.061 154.18,323.349 160.069,316.346C163.379,312.41 168.534,309.67 172.276,314.857C175.019,318.661 175.001,324.661 175.667,329.152C177.266,339.938 177.723,351.076 180.024,361.725C181.025,366.357 185.011,364.381 185.185,360.528C185.526,352.988 184.418,345.359 183.545,337.878C182.757,331.117 182.136,324.185 180.707,317.523C178.445,306.979 169.2,296.72 159.237,306.502C151.269,314.324 146.245,325.081 143.878,335.877C142.647,341.493 142.198,347.339 142.606,353.077C142.972,358.231 143.431,364.646 146.491,368.969C148.239,371.437 150.28,368.47 150.197,366.502ZM816.775,363.085C817.553,354.256 817.285,345.593 819.114,336.842C820.666,329.418 823.318,315.972 831.937,313.679C841.551,311.12 842.814,326.446 844.133,332.672C846.157,342.223 846.476,351.867 847.948,361.466C848.516,365.173 851.786,363.422 851.957,360.537C852.343,354.001 851.399,347.264 850.717,340.765C850.054,334.443 849.328,328.049 848.124,321.807C846.463,313.197 842.333,301.289 831.223,303.454C820.69,305.505 816.774,318.043 814.352,326.992C811.313,338.228 809.089,351.736 812.175,363.198C812.984,366.198 816.459,366.671 816.775,363.085ZM0,305.5C8.387,304.76 12.735,316.199 14.983,323.991C18.688,336.833 17.988,349.673 19.172,362.799C19.335,364.614 17.623,366.627 16.112,364.835C13.274,361.469 12.929,357.548 12.733,353.278C12.482,347.82 12.481,342.484 11.536,337.074C10.493,331.103 7.895,314.797 0,315.364L0,305.5ZM401.902,283.919C401.681,274.223 401.212,264.504 402.662,254.874C403.766,247.544 406.395,234.796 415.355,233.345C426.537,231.535 429.35,245.964 430.677,253.895C432.405,264.214 432.907,274.648 432.488,285.095C432.269,290.554 438.059,290.323 438.283,284.953C438.845,271.452 438.029,257.537 434.888,244.355C432.718,235.246 426.68,223.219 415.416,224.419C405.161,225.512 400.31,237.662 397.985,246.219C394.642,258.518 395.005,271.465 395.902,284.066C396.298,289.615 402.031,289.594 401.902,283.919ZM67.187,286.072C68.034,277.522 68.347,268.997 70.064,260.549C71.598,253.009 74.129,243.281 80.174,237.983C89.458,229.846 92.878,243.384 94.287,250.302C96.237,259.887 96.088,269.31 96.91,278.979C97.168,282.021 100.485,283.566 101.111,279.739C103.032,267.988 100.882,254.979 98.339,243.47C96.69,236.01 92.862,224.003 82.708,226.976C73.313,229.726 68.564,242.163 66.107,250.576C62.87,261.667 61.875,273.574 61.771,285.093C61.734,289.155 66.71,290.893 67.187,286.072ZM569.063,281.173C569.047,280.57 569.034,279.952 568.976,279.594C568.718,277.972 568.53,276.326 568.366,274.692C568.034,271.381 567.913,268.057 568.021,264.732C568.218,258.699 569.048,252.774 570.613,246.942C573.166,237.432 578.773,226.794 589.669,225.518C600.37,224.265 605.946,234.363 607.823,243.365C609.112,249.553 609.529,256.036 609.868,262.334C610.206,268.602 610.974,275.579 609.003,281.633C608.062,284.518 605.366,283.216 604.811,280.905C602.566,271.552 608.171,226.413 586.738,236.264C577.965,240.297 576.017,251.963 575.015,260.505C574.38,265.917 574.412,271.425 575.132,276.83C575.601,280.357 576.649,283.934 574.406,287.043C573.7,288.022 572.87,288.589 571.638,288.237C570.491,287.909 569.945,287.36 569.371,286.326C568.444,284.656 568.279,282.803 569.063,281.173ZM237.794,282.426C237.469,274.455 236.221,266.325 237.837,258.413C239.275,251.376 243.238,242.366 250.231,239.248C259.477,235.123 260.116,248.03 261.109,253.794C261.824,257.938 262.481,262.092 263.079,266.255C263.66,270.29 263.691,274.734 265.55,278.412C267.017,281.313 269.583,280.187 270.167,277.374C271.346,271.697 269.593,265.278 268.734,259.62C267.86,253.859 267.058,248.006 265.726,242.33C263.856,234.364 258.438,225.614 248.974,229.335C240.25,232.764 234.81,243.118 232.545,251.649C229.725,262.275 230.054,273.887 233.727,284.222C234.917,287.57 237.894,284.886 237.794,282.426ZM905.184,281.835C905.035,272.335 904.649,263.299 907.19,254.003C908.926,247.651 912.306,235.477 919.545,233.377C928.334,230.828 930.109,246.025 931.376,251.391C933.608,260.833 934.344,270.874 937.78,279.913C938.353,281.42 939.966,280.791 940.112,279.389C941.424,266.689 937.628,252.861 934.616,240.537C932.83,233.229 928.657,221.573 918.896,223.897C909.297,226.181 904.642,239.439 902.143,247.699C898.821,258.678 897.065,271.789 900.324,282.962C901.5,286.994 905.246,285.761 905.184,281.835ZM734.265,284.577L734.561,284.524C736.134,284.245 737.044,282.799 737.233,281.268C738.286,272.7 736.848,263.964 739.369,255.582C741.441,248.697 745.455,240.015 752.744,237.346C764.175,233.158 763.504,248.068 763.494,254.954C763.48,263.535 764.058,272.588 766.47,280.858C767.922,285.837 771.76,282.657 771.266,278.704C770.388,271.686 769.283,264.803 769.214,257.707C769.156,251.498 770.122,245.136 768.461,239.052C765.927,229.767 757.229,224.297 748.346,229.483C739.717,234.52 735.002,245.077 732.883,254.414C732.122,257.766 729.407,285.44 734.265,284.577ZM572.439,280.299L573.665,284.476C573.705,284.298 573.746,284.121 573.787,283.943C574.164,282.293 572.148,277.142 570.028,279.755C569.933,279.872 569.839,279.989 569.743,280.106C569.467,280.447 569.24,280.804 569.063,281.173C569.1,282.543 569.151,283.839 569.763,281.851C570.242,281.261 570.72,280.673 571.198,280.083L570.785,280.012C571.001,279.941 571.215,279.869 571.431,279.797L571.198,280.083C571.612,280.155 572.025,280.227 572.439,280.299ZM572.439,280.299L572.363,280.042C572.543,280.154 572.723,280.268 572.904,280.38L572.439,280.299ZM152.078,204.415C153.514,193.367 153.116,182.222 156.27,171.409C158.817,162.683 163.77,151.779 172.186,147.215C173.861,146.308 176.33,145.3 178.248,145.982C181.001,146.961 181.421,151.273 182.061,153.714C183.479,159.115 184.652,164.576 185.516,170.093C186.412,175.823 186.919,181.583 187.165,187.376C187.366,192.069 186.421,197.35 188.728,201.567C189.417,202.825 190.817,202.457 191.52,201.498C194.84,196.977 193.266,187.879 192.972,182.577C192.57,175.344 191.703,168.114 190.366,160.994C188.719,152.22 186.743,133.097 173.537,136.643C162.797,139.526 155.732,152.55 152.153,162.152C147.39,174.932 145.802,189.822 146.459,203.4C146.659,207.515 151.417,209.5 152.078,204.415ZM1000,152.373C998.146,151.358 995.929,151.11 993.259,152.036C984.509,155.069 981.648,166.897 980.057,174.83C978.083,184.677 979.045,194.263 978.409,204.161C978.272,206.29 975.649,207.258 974.865,204.957C970.79,192.995 973.035,177.954 976.116,166.006C978.562,156.521 983.487,144.43 994.388,142.388C996.471,141.998 998.333,142.122 1000,142.641L1000,152.373ZM491.99,202.157C491.12,190.826 490.228,179.289 491.65,167.966C492.591,160.478 496.977,137.021 508.651,140.852C518.441,144.065 520.489,156.613 521.121,165.404C521.575,171.727 521.718,178.085 521.749,184.424C521.778,190.161 520.582,197.217 522.755,202.596C523.205,203.709 524.632,204.363 525.344,203.038C528.529,197.121 527.251,187.846 527.187,181.299C527.116,173.945 527.041,166.514 526.129,159.207C524.829,148.789 520.214,133.868 508.058,131.737C495.077,129.461 489.327,149.023 487.227,158.407C484.006,172.81 485.122,187.73 486.4,202.294C486.851,207.432 492.396,207.442 491.99,202.157ZM654.39,203.049C655.439,193.507 654.568,184.012 656.268,174.472C657.721,166.322 659.86,154.836 666.762,149.32C675.887,142.028 682.702,153.399 684.312,161.227C686.503,171.877 686.244,182.374 686.028,193.164C685.954,196.821 690.071,198.147 690.786,194.024C693.016,181.163 692.093,166.012 688.34,153.485C685.726,144.759 677.749,134.962 667.558,139.307C657.755,143.485 654.198,156.513 651.887,165.8C648.957,177.58 646.7,192.124 650.706,203.877C651.543,206.333 654.154,205.2 654.39,203.049ZM0,142.641C8.163,145.179 11.671,157.172 13.824,164.54C15.721,171.036 17.153,177.696 17.93,184.422C18.647,190.627 19.458,197.547 17.53,203.588C16.801,205.869 14.821,204.707 14.327,203.032C12.818,197.911 12.969,192.242 12.255,186.971C11.594,182.084 10.752,177.242 9.562,172.453C8.143,166.744 5.935,155.623 0,152.373L0,142.641ZM319.014,200.171C319.469,190.502 318.263,180.961 319.73,171.305C321.104,162.274 324.926,149.422 334.099,145.35C345.478,140.297 347.892,156.997 349.586,164.242C352.23,175.552 354.652,186.944 358.656,197.868C359.237,199.455 360.756,198.237 360.642,196.991C359.291,182.162 356.276,167.012 352.606,152.58C350.313,143.558 344.222,132.065 332.987,136.369C322.321,140.456 316.978,154.211 314.689,164.414C312.056,176.149 311.688,189.562 313.552,201.438C314.338,206.446 318.827,204.15 319.014,200.171ZM820.89,203.772L821.042,203.7C822.269,203.122 822.544,201.595 822.594,200.395C823.205,185.629 818.515,156.735 838.144,151.734C841.549,150.866 845.441,150.967 848.484,152.884C852.773,155.587 853.414,160.804 853.951,165.439C854.565,170.757 854.972,176.102 855.356,181.44C855.723,186.542 855.284,192.042 856.523,197.004C857.188,199.668 859.593,199.499 860.182,196.915C861.699,190.255 860.56,182.188 860.175,175.396C859.817,169.087 859.718,162.392 858.142,156.243C855.62,146.408 847.715,140.57 837.534,142.915C827.501,145.226 821.763,154.209 819.235,163.621C816.124,175.194 815.329,189.752 818.248,201.402C818.512,202.452 819.17,203.845 820.453,203.836C820.603,203.847 820.748,203.826 820.89,203.772ZM67.427,117.408C66.216,107.701 65.603,98.63 68.388,89.07C70.671,81.236 75.449,68.825 84.739,67.302C94.177,65.754 95.717,77.861 96.543,84.497C97.198,89.765 97.664,95.057 97.854,100.363C98.033,105.348 97.325,110.532 98.173,115.44C98.592,117.869 101.461,118.948 102.364,116.168C104.425,109.822 103.48,102.085 103.052,95.508C102.647,89.296 102.108,82.943 100.955,76.82C99.373,68.424 94.34,57.027 83.805,59.119C72.992,61.266 66.961,75.045 64.014,84.357C60.445,95.639 59.328,108.981 63.046,120.376C64.499,124.832 67.764,120.11 67.427,117.408ZM238.725,116.132C236.755,106.842 236.478,97.818 239.129,88.611C241.393,80.744 246.587,68.274 254.796,64.926C270.38,58.571 266.444,111.916 268.24,119.345C268.681,121.172 270.851,122.245 271.583,119.926C273.64,113.409 272.54,105.39 272.245,98.632C271.9,90.742 271.052,82.92 270.15,75.079C269.205,66.857 265.886,52.415 254.329,55.808C243.827,58.892 236.912,73.778 233.935,83.292C230.291,94.939 229.956,107.882 233.698,119.537C235.262,124.411 239.439,119.5 238.725,116.132ZM406.065,116.36C405.33,106.864 404.441,98.053 406.675,88.635C408.769,79.809 413.335,67.729 421.071,62.302C425.84,58.957 431.507,61.693 433.7,66.724C435.766,71.463 435.977,77.289 436.419,82.346C437.393,93.494 436.404,104.44 436.66,115.557C436.749,119.4 440.915,120.909 441.722,116.472C444.27,102.47 442.616,86.651 440.618,72.659C439.353,63.806 433.861,47.824 421.628,52.43C416.192,54.478 412.523,60.337 409.638,65.056C406.377,70.388 403.765,76.163 402.004,82.163C398.655,93.579 397.234,107.104 401.052,118.573C402.415,122.67 406.303,119.434 406.065,116.36ZM574.699,116.392C574.943,105.916 572.883,95.777 574.705,85.271C576.176,76.787 579.943,68.079 586.803,62.569C590.687,59.448 596.373,57.555 598.877,63.156C600.748,67.341 601.187,72.691 601.884,77.183C602.702,82.451 603.204,87.76 603.426,93.087C603.617,97.708 603.118,102.571 604.244,107.081C604.716,108.969 606.767,109.915 607.588,107.662C609.736,101.762 608.872,94.37 608.467,88.22C608.028,81.546 607.178,74.887 605.9,68.323C604.168,59.426 599.947,46.538 588.129,52.031C578.61,56.455 572.848,67.802 570.261,77.423C566.907,89.894 566.908,104.962 569.788,117.531C570.779,121.856 574.611,120.14 574.699,116.392ZM907.352,116.757C908.407,107.686 906.756,98.413 908.498,89.409C909.88,82.259 913.564,72.958 919.568,68.33C923.254,65.489 927.997,66.857 930.676,70.473C933.22,73.904 933.484,78.729 933.856,82.827C934.646,91.52 933.176,101.593 935.469,109.988C935.877,111.482 937.355,112.144 938.06,110.438C940.084,105.534 939.728,99.336 939.629,94.102C939.515,88.027 939.255,81.861 938.346,75.845C937.117,67.702 931.597,56.611 921.511,58.778C913.194,60.564 907.592,72.985 905.199,80.159C901.301,91.843 902.999,103.858 902.73,115.922C902.652,119.415 906.876,120.842 907.352,116.757ZM740.78,113.854C741.314,97.589 739.218,79.119 750.979,65.902C754.091,62.406 758.455,60.291 762.536,63.771C766.158,66.859 766.755,72.459 767.588,76.843C769.519,87.012 769.866,97.14 770.456,107.434C770.656,110.934 774.944,112.765 775.314,108.312C776.383,95.457 774.885,81.791 771.969,69.24C769.891,60.295 762.687,47.849 751.854,54.374C743.14,59.621 738.702,71.473 736.593,80.862C734.134,91.817 733.959,104.004 735.289,115.127C735.888,120.144 740.647,117.879 740.78,113.854ZM26.566,0C27.179,5.595 27.651,11.213 28.137,16.807C28.866,25.187 30.082,34.091 28.521,42.434C28.136,44.493 26.288,44.411 25.752,42.502C23.972,36.156 23.874,29.243 23.467,22.7C23.048,15.969 22.552,9.239 21.91,2.526C21.834,1.727 21.761,0.882 21.683,0L26.566,0ZM151.763,0C151.203,1.85 150.785,3.754 150.502,5.667C149.687,11.16 149.758,16.807 150.279,22.325C150.756,27.379 153.242,33.487 152.017,38.455C151.773,39.443 151.023,40.727 149.866,39.862C147.403,38.022 147.134,34.566 146.538,31.714C145.836,28.353 145.388,24.944 145.072,21.527C144.431,14.578 144.443,7.391 145.797,0.52C145.831,0.347 145.866,0.173 145.902,0L151.763,0ZM984.403,0C984.353,0.182 984.303,0.362 984.255,0.541C982.563,6.81 981.705,13.369 981.714,19.861C981.719,23.435 981.956,27.006 982.466,30.544C982.848,33.194 983.495,35.359 982.978,37.993C982.748,39.166 981.795,39.97 980.856,38.908C978.693,36.458 978.655,32.774 978.248,29.637C977.755,25.84 977.501,22.017 977.516,18.188C977.54,12.068 978.22,5.971 979.528,0L984.403,0ZM817.24,0C816.553,2.938 816.185,5.977 816.094,9.007C815.91,15.122 816.571,21.213 817.206,27.283C817.548,30.556 819.281,36.253 816.192,38.742C815.765,39.085 815.16,39.356 814.609,39.098C813.64,38.646 813.2,38.111 812.803,37.102C812.454,36.215 812.379,34.936 812.831,33.99L812.832,33.899C812.691,33 812.548,32.102 812.403,31.203C812.076,29.092 811.768,26.978 811.486,24.86C811.035,21.457 810.617,18.04 810.381,14.615C810.048,9.765 810.047,4.832 810.709,0L817.24,0ZM493.544,0C492.328,3.381 491.45,6.837 490.884,10.138C490.044,15.052 489.786,20.105 490.208,25.075C490.496,28.471 492.284,33.444 489.905,36.45C489.473,36.995 489.138,37.177 488.446,37.198C487.257,37.233 486.591,36.185 486.122,35.265C483.472,30.075 483.473,22.811 483.672,17.098C483.874,11.307 484.911,5.534 486.637,0L493.544,0ZM324.618,0C324.127,1.481 323.671,2.942 323.232,4.352C321.755,9.096 320.532,14.065 320.42,19.055C320.322,23.436 321.357,27.812 320.926,32.17C320.817,33.277 319.924,34.149 318.886,33.504C314.453,30.747 314.055,22.968 314.156,18.354C314.294,12.078 315.604,5.945 317.552,0L324.618,0ZM193.999,0C194.081,1.146 194.142,2.293 194.195,3.435C194.553,11.216 195.016,18.948 196.212,26.657C196.785,30.345 192.987,33.273 191.759,28.657C189.214,19.093 189.442,9.622 188.328,0L193.999,0ZM697.185,0C697.295,2.106 697.357,4.212 697.426,6.296C697.667,13.6 698.286,21.253 696.728,28.424C696.176,30.964 693.366,31.443 692.92,28.518C692.113,23.217 693.082,10.922 691.992,0L697.185,0ZM862.078,0C862.432,2.09 862.719,4.193 862.949,6.306C863.719,13.39 864.537,21.309 862.972,28.322C862.483,30.512 860.226,30.825 859.758,28.402C858.652,22.672 858.973,16.657 858.454,10.849C858.13,7.217 857.64,3.582 856.908,0L862.078,0ZM658.269,0L658.226,0.124C655.172,8.906 656.458,17.343 656.545,26.378C656.56,27.915 654.856,30.643 653.442,28.443C648.362,20.538 648.787,9.427 650.95,0L658.269,0ZM360.527,0C360.588,0.991 360.648,1.981 360.71,2.97C361.17,10.247 362.515,17.956 361.495,25.205C361.197,27.321 359.241,27.125 358.726,25.273C356.504,17.288 356.82,8.461 356.462,0L360.527,0ZM532.785,0C532.858,1.263 532.92,2.522 532.983,3.77C533.321,10.422 533.759,17.276 531.645,23.676C531.036,25.52 529.241,24.748 528.914,23.201C527.31,15.608 527.801,7.765 527.389,0L532.785,0Z" style="fill-rule:nonzero;"/>
</svg>
